<?xml version="1.0" encoding="UTF-8"?>
<svg xmlns="http://www.w3.org/2000/svg" viewBox="0 0 1174 985">
  
<defs>
  <linearGradient id="grad" x1="0%" y1="0%" x2="100%" y2="0%">
    <stop offset="0%"  stop-color="#f6b79a"/>
    <stop offset="45%" stop-color="#f4c8b9"/>
    <stop offset="75%" stop-color="#cfd7ee"/>
    <stop offset="100%" stop-color="#a9c7f5"/>
  </linearGradient>
</defs>

  <rect width="100%" height="100%" fill="none"/>
  <path d="M 65.00 888.50 L 49.00 886.50 L 37.50 880.00 L 27.00 868.50 L 19.50 854.00 L 19.50 822.00 L 25.50 806.00 L 27.50 786.00 L 32.50 775.00 L 34.50 761.00 L 39.50 748.00 L 40.50 735.00 L 45.50 724.00 L 54.50 683.00 L 58.50 675.00 L 61.50 658.00 L 65.50 652.00 L 68.50 633.00 L 73.50 622.00 L 74.50 611.00 L 80.50 599.00 L 86.50 571.00 L 113.50 490.00 L 128.50 435.00 L 133.50 426.00 L 141.50 394.00 L 145.50 388.00 L 155.50 352.00 L 167.50 324.00 L 168.50 315.00 L 172.50 309.00 L 175.50 296.00 L 186.50 273.00 L 189.50 260.00 L 192.50 257.00 L 208.50 213.00 L 240.50 147.00 L 243.00 137.50 L 265.50 98.00 L 268.50 89.00 L 305.50 30.00 L 310.50 25.00 L 327.00 19.50 L 356.00 20.50 L 382.00 26.50 L 414.00 40.50 L 435.00 53.50 L 453.50 73.00 L 460.50 94.00 L 461.50 115.00 L 466.50 134.00 L 468.50 172.00 L 473.50 201.00 L 481.50 531.00 L 484.50 542.00 L 492.00 548.50 L 502.50 535.00 L 511.50 504.00 L 522.50 477.00 L 524.50 465.00 L 564.50 367.00 L 602.50 291.00 L 611.50 268.00 L 615.50 264.00 L 631.50 226.00 L 663.50 164.00 L 678.50 129.00 L 717.50 54.00 L 719.00 47.50 L 724.50 41.00 L 725.50 34.00 L 734.00 24.50 L 754.00 24.50 L 794.00 40.50 L 810.00 50.50 L 820.50 54.00 L 834.00 64.50 L 849.50 81.00 L 851.50 87.00 L 848.50 216.00 L 848.50 346.00 L 850.50 398.00 L 856.50 460.00 L 871.50 547.00 L 901.50 645.00 L 898.50 648.00 L 896.50 658.00 L 887.50 667.00 L 872.00 673.50 L 841.00 672.50 L 819.00 658.50 L 807.00 638.50 L 804.50 627.00 L 799.50 620.00 L 797.50 606.00 L 786.50 573.00 L 783.50 552.00 L 778.50 541.00 L 777.50 522.00 L 772.50 505.00 L 770.50 479.00 L 765.50 458.00 L 757.50 378.00 L 757.50 350.00 L 752.50 319.00 L 750.50 235.00 L 748.50 225.00 L 745.00 222.50 L 738.00 225.50 L 729.50 241.00 L 727.50 249.00 L 710.50 280.00 L 701.50 303.00 L 695.50 311.00 L 694.50 318.00 L 690.50 322.00 L 677.50 349.00 L 674.50 360.00 L 656.50 394.00 L 646.00 423.50 L 636.50 442.00 L 626.50 476.00 L 623.50 479.00 L 615.50 503.00 L 606.50 540.00 L 601.50 549.00 L 593.50 585.00 L 588.50 594.00 L 580.50 640.00 L 574.50 652.00 L 574.50 658.00 L 552.00 679.50 L 531.00 686.50 L 496.00 687.50 L 461.00 672.50 L 432.50 655.00 L 417.00 638.50 L 409.50 622.00 L 403.50 600.00 L 401.50 572.00 L 396.50 555.00 L 394.50 535.00 L 383.50 494.00 L 381.50 468.00 L 375.50 438.00 L 374.50 405.00 L 370.50 385.00 L 370.50 229.00 L 365.00 222.50 L 355.00 232.50 L 347.50 245.00 L 319.50 303.00 L 313.50 311.00 L 234.50 486.00 L 231.50 499.00 L 199.50 575.00 L 197.50 585.00 L 193.50 591.00 L 190.50 604.00 L 186.50 610.00 L 183.00 624.50 L 153.50 701.00 L 151.50 713.00 L 146.50 722.00 L 125.50 789.00 L 123.50 805.00 L 118.50 820.00 L 117.50 835.00 L 112.50 846.00 L 110.50 858.00 L 90.00 881.50 L 65.00 888.50 Z" fill="url(#grad)" fill-rule="nonzero"/>
  <path d="M 234.00 964.50 L 220.00 964.50 L 214.50 962.00 L 176.00 916.50 L 175.50 891.00 L 182.50 876.00 L 196.00 863.50 L 203.00 862.50 L 209.00 858.50 L 225.00 856.50 L 231.00 852.50 L 250.00 849.50 L 285.00 838.50 L 306.00 835.50 L 314.00 831.50 L 334.00 829.50 L 347.00 824.50 L 369.00 822.50 L 382.00 817.50 L 399.00 816.50 L 414.00 811.50 L 436.00 809.50 L 448.00 805.50 L 515.00 796.50 L 537.00 790.50 L 560.00 789.50 L 577.00 784.50 L 600.00 783.50 L 624.00 777.50 L 652.00 775.50 L 659.00 772.50 L 692.00 769.50 L 764.00 757.50 L 793.00 756.50 L 820.00 751.50 L 869.00 748.50 L 906.00 743.50 L 979.00 740.50 L 1016.00 741.50 L 1028.00 739.50 L 1046.50 724.00 L 1068.00 715.50 L 1084.00 715.50 L 1102.00 723.50 L 1143.00 746.50 L 1150.50 753.00 L 1153.50 760.00 L 1150.50 779.00 L 1138.00 788.50 L 1036.00 790.50 L 1021.00 793.50 L 948.00 796.50 L 919.00 801.50 L 881.00 803.50 L 870.00 806.50 L 831.00 809.50 L 817.00 813.50 L 780.00 816.50 L 759.00 821.50 L 738.00 822.50 L 723.00 827.50 L 697.00 829.50 L 687.00 833.50 L 662.00 836.50 L 654.00 840.50 L 606.00 848.50 L 435.00 895.50 L 335.00 929.50 L 277.50 954.00 L 267.00 955.50 L 252.00 962.50 L 234.00 964.50 Z" fill="url(#grad)" fill-rule="nonzero"/>
</svg>
